<?xml version="1.0" encoding="UTF-8" standalone="no"?>
<svg
   version="1.0"
   width="700.000000pt"
   height="1000.000000pt"
   viewBox="0 0 700.000000 1000.000000"
   preserveAspectRatio="xMidYMid meet"
   id="svg1"
   sodipodi:docname="eric-fire.svg"
   inkscape:version="1.3 (0e150ed, 2023-07-21)"
   xmlns:inkscape="http://www.inkscape.org/namespaces/inkscape"
   xmlns:sodipodi="http://sodipodi.sourceforge.net/DTD/sodipodi-0.dtd"
   xmlns="http://www.w3.org/2000/svg"
   xmlns:svg="http://www.w3.org/2000/svg">
  <defs
     id="defs1" />
  <sodipodi:namedview
     id="namedview1"
     pagecolor="#ffffff"
     bordercolor="#000000"
     borderopacity="0.25"
     inkscape:showpageshadow="2"
     inkscape:pageopacity="0.0"
     inkscape:pagecheckerboard="0"
     inkscape:deskcolor="#d1d1d1"
     inkscape:document-units="pt"
     inkscape:zoom="17.666356"
     inkscape:cx="229.13611"
     inkscape:cy="1235.5972"
     inkscape:window-width="3440"
     inkscape:window-height="1338"
     inkscape:window-x="1728"
     inkscape:window-y="25"
     inkscape:window-maximized="1"
     inkscape:current-layer="svg1" />
  <g
     transform="translate(0.000000,1000.000000) scale(0.100000,-0.100000)"
     fill="#000000"
     stroke="none"
     id="g1">
    <path
       d="m 3210,9994 c 0,-2 15,-25 34,-51 50,-71 102,-179 128,-269 20,-70 23,-100 23,-269 -1,-162 -5,-213 -28,-344 -57,-320 -75,-531 -58,-684 6,-54 29,-180 51,-280 71,-330 84,-419 84,-582 1,-156 -7,-195 -46,-219 -13,-8 -24,-6 -45,10 -36,26 -89,105 -103,152 -21,71 -23,271 -5,502 23,298 12,429 -46,542 -35,68 -115,145 -192,183 -91,46 -104,45 -73,-2 65,-101 65,-232 -3,-633 -27,-162 -55,-349 -61,-415 -30,-302 35,-605 212,-995 197,-435 204,-457 195,-639 -8,-148 -43,-311 -66,-311 -28,0 -65,166 -96,425 -10,77 -26,163 -36,190 -36,96 -117,202 -228,297 -53,45 -176,118 -200,118 -6,0 -3,-18 8,-43 44,-103 65,-217 66,-357 0,-155 -14,-232 -59,-322 -23,-47 -41,-68 -69,-83 -34,-18 -39,-19 -64,-5 -51,29 -55,47 -49,255 4,105 13,235 22,290 8,55 18,192 21,305 6,222 -4,308 -47,422 -64,171 -213,278 -409,295 l -75,6 21,-29 c 75,-107 113,-240 113,-398 0,-125 -13,-198 -64,-353 -19,-60 -46,-153 -60,-208 -55,-214 -58,-254 -65,-700 -7,-448 -10,-480 -56,-480 -27,0 -68,85 -101,211 -48,181 -122,282 -258,349 -136,68 -296,58 -425,-25 -54,-35 -151,-126 -151,-141 0,-4 24,-12 53,-19 78,-16 130,-45 182,-101 135,-145 170,-404 119,-884 -13,-119 -52,-392 -131,-916 -12,-80 -17,-176 -17,-324 0,-196 2,-217 26,-307 32,-115 81,-232 132,-312 20,-32 36,-59 34,-61 -6,-5 -372,35 -553,60 -218,30 -235,30 -285,5 -94,-48 -156,-194 -167,-395 -13,-244 61,-422 189,-456 49,-13 213,-1 1258,92 184,16 347,28 363,27 21,-2 -43,-43 -310,-195 -186,-105 -417,-233 -513,-284 -218,-115 -263,-142 -324,-199 -205,-188 -222,-473 -41,-692 140,-170 343,-203 568,-93 40,20 98,55 130,79 104,78 368,319 652,596 300,293 484,464 634,593 76,65 93,76 89,56 -3,-13 -53,-258 -111,-544 -59,-286 -120,-581 -137,-655 -55,-239 -49,-356 25,-506 147,-300 606,-367 865,-127 103,95 160,249 160,433 0,102 -26,373 -70,720 -41,327 -80,669 -80,706 v 31 l 68,6 67,6 91,-92 c 131,-133 280,-299 524,-582 308,-358 374,-431 549,-605 163,-162 220,-203 339,-248 52,-19 87,-25 157,-26 84,-1 96,2 160,33 127,62 242,209 275,350 17,70 8,191 -19,260 -28,74 -84,157 -145,213 -28,26 -168,125 -311,220 -349,232 -866,592 -855,596 5,2 81,-4 167,-12 87,-9 349,-32 583,-51 487,-41 629,-55 898,-92 221,-30 247,-27 309,34 152,153 165,609 20,762 -42,44 -84,61 -149,61 -29,0 -210,-13 -402,-30 -193,-16 -352,-28 -353,-26 -2,2 19,39 47,82 70,107 124,223 171,367 60,181 82,320 82,517 0,212 -17,296 -118,585 -218,622 -248,743 -248,975 0,128 3,155 27,233 29,96 84,212 139,295 34,49 35,52 14,52 -48,0 -154,-32 -221,-67 -205,-106 -344,-348 -375,-651 -11,-109 -1,-252 25,-341 9,-30 34,-100 56,-155 66,-167 72,-190 72,-326 1,-105 -1,-125 -14,-125 -24,0 -48,92 -59,222 -11,130 -26,187 -95,357 -100,246 -99,353 4,631 58,156 76,225 85,325 8,92 -12,247 -54,426 -47,202 -64,312 -57,379 7,72 46,154 88,190 17,14 29,27 27,29 -2,2 -25,8 -51,15 -239,58 -382,-107 -417,-480 -14,-151 -28,-214 -59,-279 -45,-92 -101,-105 -128,-29 -31,86 -6,258 76,528 68,224 84,312 77,436 -7,125 -19,163 -124,405 -95,218 -163,413 -189,539 -16,84 -16,263 1,304 15,36 -17,15 -98,-65 -100,-99 -150,-191 -167,-304 -16,-107 1,-207 75,-434 96,-295 101,-347 49,-512 -30,-93 -64,-139 -91,-122 -33,20 -45,83 -54,279 -17,369 -47,496 -216,925 -191,483 -202,540 -213,1060 -7,336 -10,383 -29,454 -55,205 -172,324 -436,440 -30,14 -55,23 -55,20 z m 273,-273 c 58,-54 92,-109 120,-194 18,-56 21,-99 27,-437 12,-572 29,-662 218,-1105 115,-271 148,-361 184,-490 28,-104 30,-124 38,-380 8,-294 17,-345 66,-396 22,-23 37,-29 68,-29 35,0 46,6 91,53 84,86 145,236 145,353 0,71 -29,177 -93,340 -77,194 -90,249 -84,359 3,64 11,107 29,150 28,67 94,175 83,135 -4,-14 -9,-66 -12,-117 -9,-150 26,-272 172,-603 96,-218 116,-292 117,-430 1,-119 -16,-217 -68,-406 -58,-210 -84,-335 -84,-405 0,-114 43,-199 118,-233 58,-26 105,-15 158,37 53,53 79,134 88,272 26,377 92,522 250,550 l 39,6 -41,-46 c -86,-97 -90,-174 -28,-459 89,-399 86,-498 -24,-790 -54,-144 -72,-225 -72,-321 0,-104 11,-147 82,-331 75,-191 86,-247 94,-458 3,-93 11,-187 17,-209 13,-49 59,-97 92,-97 57,0 145,93 172,183 40,134 30,235 -42,412 -63,156 -93,285 -100,432 -9,191 29,360 109,487 35,55 151,181 182,198 18,10 18,9 -1,-18 -40,-57 -95,-178 -114,-252 -13,-53 -19,-109 -19,-189 0,-188 32,-307 190,-703 175,-439 196,-529 187,-814 -4,-129 -12,-210 -27,-281 -47,-223 -139,-441 -251,-598 -243,-341 -748,-597 -1422,-722 -185,-34 -202,-31 -77,11 116,38 333,140 422,197 191,123 311,290 352,489 25,120 24,121 -47,53 -35,-33 -100,-81 -144,-107 -118,-70 -122,-70 -76,-2 140,206 245,487 289,769 23,155 16,415 -16,538 -24,94 -40,112 -40,44 0,-64 -25,-152 -70,-243 -63,-128 -164,-210 -289,-234 -66,-12 -122,-4 -164,24 -68,46 -72,108 -13,203 51,82 62,145 50,284 -11,135 -3,212 26,251 12,16 19,32 16,36 -4,3 -33,8 -66,10 -80,6 -140,-23 -176,-84 -21,-36 -28,-64 -34,-143 -8,-105 -13,-121 -35,-121 -18,0 -45,51 -45,84 0,13 17,75 38,138 l 37,113 1,305 c 0,263 2,311 17,349 10,24 22,50 28,58 21,24 -7,14 -69,-26 -80,-52 -107,-95 -138,-221 -31,-126 -61,-188 -120,-247 -52,-51 -85,-55 -117,-12 -50,68 -45,328 11,547 16,61 26,112 22,112 -4,0 -25,-13 -46,-28 -66,-48 -142,-139 -178,-215 -49,-100 -60,-192 -51,-438 9,-229 4,-261 -61,-395 -41,-88 -88,-144 -119,-144 -25,0 -33,61 -23,171 5,57 7,133 3,169 -8,88 -53,181 -107,221 -23,16 -45,29 -50,29 -4,0 -8,-24 -8,-53 0,-97 -53,-217 -96,-217 -28,0 -81,60 -128,146 -114,204 -199,302 -311,355 -33,16 -65,29 -72,29 -7,0 1,-29 22,-72 100,-220 153,-494 142,-742 -12,-269 -84,-409 -255,-493 -70,-35 -83,-38 -162,-38 -79,0 -90,3 -122,27 -19,15 -40,39 -46,55 -6,15 -25,65 -42,109 -35,95 -93,167 -155,195 -26,12 -64,19 -107,19 -76,0 -78,-3 -53,-63 28,-67 65,-209 106,-405 92,-445 162,-613 371,-884 198,-256 444,-435 723,-527 103,-34 95,-37 -48,-16 -435,64 -789,193 -1055,382 -300,214 -469,490 -513,840 -21,172 -7,323 91,933 78,485 93,620 94,835 1,152 -3,206 -18,269 -44,190 -127,289 -268,318 l -59,12 23,19 c 13,10 50,32 83,48 165,81 350,-8 450,-216 21,-43 56,-152 85,-263 61,-239 87,-292 144,-292 29,0 69,44 85,93 39,116 43,169 51,632 9,546 18,616 125,960 48,155 65,243 65,344 0,107 -20,189 -65,261 -18,30 -32,57 -30,58 7,7 110,-31 145,-53 169,-106 206,-322 147,-845 -46,-403 -45,-495 7,-599 89,-181 312,-83 398,176 19,55 23,88 22,178 -1,94 -5,122 -30,198 -17,48 -27,87 -23,87 4,0 34,-25 67,-55 96,-88 147,-210 172,-405 44,-356 102,-520 184,-520 54,0 119,114 151,265 41,198 7,391 -121,682 -211,480 -238,550 -276,728 -16,77 -21,136 -22,255 0,172 10,252 77,575 35,172 41,218 41,330 1,120 -1,134 -25,183 -14,28 -23,52 -20,52 10,0 85,-81 103,-110 8,-14 23,-50 34,-80 26,-75 24,-262 -5,-479 -36,-278 -25,-442 37,-576 37,-77 81,-128 136,-154 110,-54 196,5 226,154 23,111 0,273 -88,630 -63,254 -75,352 -69,550 3,119 13,214 31,315 14,80 35,197 46,260 27,150 36,344 21,437 -12,71 -57,181 -89,217 -16,18 -16,18 7,6 14,-7 47,-33 74,-59 z m 91,-4691 c -7,-36 -14,-113 -14,-171 0,-270 117,-382 266,-255 54,46 96,129 129,251 15,55 30,104 34,108 5,4 7,-92 6,-215 l -2,-223 -36,-130 c -51,-182 -48,-244 15,-301 32,-30 82,-54 112,-54 37,0 52,37 70,174 16,125 36,179 76,205 23,15 23,15 10,-9 -10,-18 -14,-76 -14,-206 l -1,-181 -42,-80 c -76,-145 -77,-206 -6,-275 108,-105 272,-109 435,-11 66,39 146,123 177,185 l 21,43 v -64 c 0,-296 -148,-704 -385,-1061 -68,-104 -88,-140 -75,-140 27,0 184,47 252,76 33,14 62,23 64,21 7,-7 -69,-98 -127,-152 -203,-190 -547,-337 -899,-386 -134,-18 -365,-16 -476,4 -506,92 -958,481 -1164,1001 -17,43 -64,207 -105,365 -41,157 -81,308 -89,336 -8,27 -13,51 -11,53 3,3 22,-13 43,-34 29,-29 50,-68 83,-152 67,-172 109,-213 236,-227 204,-24 408,96 506,297 53,108 68,176 74,331 8,194 -25,377 -103,576 -19,47 -32,86 -30,88 8,8 78,-100 152,-236 95,-173 145,-231 201,-231 70,0 134,60 163,154 11,35 14,37 24,20 7,-13 10,-86 8,-226 l -2,-206 26,-31 c 78,-93 234,34 317,259 18,49 21,89 27,355 4,165 12,314 17,331 13,38 43,97 48,92 1,-1 -3,-32 -11,-68 z M 6474,2777 c 34,-19 42,-31 64,-97 46,-141 39,-409 -14,-505 -36,-64 -76,-97 -118,-97 -51,0 -84,25 -112,87 -74,161 -37,487 66,597 42,44 60,46 114,15 z M 668,2763 c 13,-8 35,-38 48,-67 95,-208 -6,-666 -139,-632 -82,20 -126,122 -134,307 -13,293 93,478 225,392 z m 5634,4 c -12,-13 -22,-29 -22,-36 0,-6 -9,-24 -20,-39 -30,-40 -60,-174 -60,-263 0,-101 22,-214 55,-279 14,-29 24,-54 21,-57 -5,-5 -307,25 -876,87 -195,21 -415,44 -488,51 -73,7 -129,15 -125,19 4,4 42,20 83,35 227,82 606,306 623,367 3,10 13,21 24,24 10,4 29,17 43,29 22,20 50,24 270,44 135,12 281,26 325,30 44,5 100,9 124,10 l 44,1 z m -5198,-31 309,-33 71,-72 c 102,-105 256,-218 404,-295 20,-11 93,-43 160,-72 144,-61 154,-54 -113,-79 -88,-8 -320,-30 -515,-49 -449,-44 -721,-68 -726,-63 -2,1 7,14 20,28 35,38 73,144 87,242 18,119 0,265 -42,356 -16,35 -29,65 -29,67 0,8 74,2 374,-30 z m 3479,-694 c 78,-54 279,-191 447,-304 377,-253 460,-311 460,-320 0,-5 -3,-7 -7,-6 -7,2 -80,-8 -123,-17 -24,-4 -104,-62 -118,-84 -7,-12 -18,-21 -25,-21 -27,0 -107,-143 -127,-228 -12,-50 -8,-195 7,-247 5,-18 2,-17 -23,6 -16,14 -37,29 -47,32 -9,4 -21,17 -26,31 -6,13 -49,66 -98,118 -48,51 -217,240 -374,418 -157,179 -352,395 -433,480 -120,126 -144,156 -129,161 10,3 92,18 183,33 91,15 188,33 215,40 28,8 56,12 63,10 7,-2 77,-48 155,-102 z m -2063,74 c 76,-18 268,-51 357,-61 44,-5 60,-10 57,-20 -3,-7 -44,-46 -92,-86 -142,-121 -292,-257 -567,-519 -143,-136 -309,-292 -370,-346 -60,-55 -122,-111 -136,-124 -35,-33 -106,-90 -113,-90 l 37.6416,117.03635 C 1696.2833,1110.5271 1659,1253 1604,1335 c -59,90 -158,156 -255,173 l -44,7 180,102 c 99,55 324,179 500,276 176,96 347,191 380,210 33,19 67,33 75,32 8,-2 44,-11 80,-19 z m 1064,-108 c 3,-13 10,-81 16,-153 6,-71 29,-287 50,-480 37,-329 70,-660 70,-694 0,-10 -8,-7 -28,12 -15,15 -33,27 -38,27 -6,0 -20,11 -32,25 -41,47 -162,96 -286,115 -81,12 -250,0 -270,-20 -5,-5 -19,-10 -30,-10 -12,0 -45,-14 -75,-30 -30,-17 -56,-28 -58,-27 -7,7 49,284 127,636 44,196 89,416 102,489 l 23,132 h 212 c 212,0 213,0 217,-22 z M 1425,1435 c 135,-64 222,-234 213,-419 -5,-105 -26,-161 -83,-224 -58,-65 -128,-94 -228,-96 -71,-1 -89,3 -140,27 -146,72 -250,256 -234,414 14,139 126,271 267,314 57,17 150,10 205,-16 z m 4182,-106 c 87,-42 166,-129 191,-212 25,-82 36,-155 24,-170 -5,-7 -12,-24 -15,-38 -17,-68 -71,-161 -120,-205 -78,-70 -156,-104 -242,-104 -181,0 -309,120 -322,305 -6,76 15,180 45,225 9,14 17,31 18,38 1,7 15,30 30,50 110,144 242,182 391,111 z M 3454,761 c 80,-31 112,-50 193,-118 46,-40 53,-50 68,-114 22,-88 15,-142 -27,-221 -69,-129 -204,-198 -392,-198 -73,0 -105,5 -180,31 -107,36 -170,89 -214,179 -23,47 -27,67 -27,140 1,70 5,95 26,140 46,98 135,165 251,190 78,16 219,3 302,-29 z"
       id="path2"
       sodipodi:nodetypes="sccccsccsccccccccccscccsccccccccccccscccscccsccccsccccccccccccccscccccccscscccccccccccccccccccsccccscsccscccccssccccccscccccccccccccccccccscccccccscsccccccccsccccccccscccscccccccscccccccccccccsccccccccccssccccccscccsccccscccsssccscccsccccsccccccccccccccccscccsccccccccsccscccccccscccccccccccscccscccccccsccccccccccscscsccccccsscccccscsccccscccsccccscccccccccscscscssccccccccccccccccccccscscscccscccccccccscssccccccccccccccscccccscsccsscccccsccccccccccccccsccsccccccscccccc" />
  </g>
</svg>
